{"title":"The Graduate-720p MP4 AAC x264 BRRip 1967-CC","uid":7444068,"size":2116545773,"categoryP":"video","categoryS":"hd___movies","magnet":"?xt=urn:btih:3e8fee289aafe4aa24b289c472a0e1c161df2a92&amp;dn=The+Graduate-720p+MP4+AAC+x264+BRRip+1967-CC&amp;tr=udp%3A%2F%2Ftracker.openbittorrent.com%3A80&amp;tr=udp%3A%2F%2Fopen.demonii.com%3A1337&amp;tr=udp%3A%2F%2Ftracker.coppersurfer.tk%3A6969&amp;tr=udp%3A%2F%2Fexodus.desync.com%3A6969","seeders":18,"leechers":3,"uploader":"Caveman44","files":-1,"time":1342306398,"description":" &lt;a href=&quot;http://www.imdb.com/title/tt0061722/&quot; rel=&quot;nofollow&quot; target=&quot;_NEW&quot;&gt;http://www.imdb.com/title/tt0061722/&lt;/a&gt;\n\nSource: The.Graduate.1967.BluRay.720p.x264.DTS.DD20.DualAudio-MySiLU\n\nSubs: Arabic, Dutch, English, French, Italian, Portuguese, Romanian and Spanish.\n\nSample and Screens included.\n\nGeneral\nComplete name                    : The Graduate-720p MP4 AAC x264 BRRip 1967-CC.mp4\nFormat                           : MPEG-4\nFormat profile                   : Base Media\nCodec ID                         : isom\nFile size                        : 1.95 GiB\nDuration                         : 1h 45mn\nOverall bit rate                 : 2 629 Kbps\nEncoded date                     : UTC 2012-06-28 15:02:52\n\nVideo\nID                               : 1\nFormat                           : AVC\nFormat/Info                      : Advanced Video Codec\nFormat profile                   : &lt;a class=&quot;__cf_email__&quot; href=&quot;/cdn-cgi/l/email-protection&quot; data-cfemail=&quot;d890b1bfb09894ebf6e9&quot;&gt;[email&amp;#160;protected]&lt;/a&gt;&lt;script cf-hash='f9e31' type=&quot;text/javascript&quot;&gt;\n/* &lt;![CDATA[ */!function(){try{var t=&quot;currentScript&quot;in document?document.currentScript:function(){for(var t=document.getElementsByTagName(&quot;script&quot;),e=t.length;e--;)if(t[e].getAttribute(&quot;cf-hash&quot;))return t[e]}();if(t&amp;&amp;t.previousSibling){var e,r,n,i,c=t.previousSibling,a=c.getAttribute(&quot;data-cfemail&quot;);if(a){for(e=&quot;&quot;,r=parseInt(a.substr(0,2),16),n=2;a.length-n;n+=2)i=parseInt(a.substr(n,2),16)^r,e+=String.fromCharCode(i);e=document.createTextNode(e),c.parentNode.replaceChild(e,c)}}}catch(u){}}();/* ]]&gt; */&lt;/script&gt;\nFormat settings, CABAC           : Yes\nFormat settings, ReFrames        : 5 frames\nCodec ID                         : avc1\nCodec ID/Info                    : Advanced Video Coding\nDuration                         : 1h 45mn\nBit rate mode                    : Variable\nBit rate                         : 2 302 Kbps\nMaximum bit rate                 : 9 756 Kbps\nWidth                            : 1 280 pixels\nHeight                           : 544 pixels\nDisplay aspect ratio             : 2.35:1\nFrame rate mode                  : Variable\nFrame rate                       : 23.976 fps\nMinimum frame rate               : 19.048 fps\nMaximum frame rate               : 24.390 fps\nResolution                       : 24 bits\nColorimetry                      : 4:2:0\nScan type                        : Progressive\nBits/(Pixel*Frame)               : 0.138\nStream size                      : 1.71 GiB (88%)\nWriting library                  : x264 core 112\n\nAudio\nID                               : 2\nFormat                           : AAC\nFormat/Info                      : Advanced Audio Codec\nFormat version                   : Version 4\nFormat profile                   : LC\nFormat settings, SBR             : No\nCodec ID                         : 40\nDuration                         : 1h 45mn\nBit rate mode                    : Variable\nBit rate                         : 320 Kbps\nMaximum bit rate                 : 412 Kbps\nChannel(s)                       : 2 channels\nChannel positions                : L R\nSampling rate                    : 48.0 KHz\nResolution                       : 16 bits\nStream size                      : 242 MiB (12%)\nLanguage                         : English\n\n\nEnjoy...\n\nRequested by varuneric. ( more coming up )","torrent":{"xt":"urn:btih:3e8fee289aafe4aa24b289c472a0e1c161df2a92","amp;dn":"The+Graduate-720p+MP4+AAC+x264+BRRip+1967-CC","amp;tr":["udp%3A%2F%2Ftracker.openbittorrent.com%3A80","udp%3A%2F%2Fopen.demonii.com%3A1337","udp%3A%2F%2Ftracker.coppersurfer.tk%3A6969","udp%3A%2F%2Fexodus.desync.com%3A6969"],"infoHash":"3e8fee289aafe4aa24b289c472a0e1c161df2a92","infoHashBuffer":{"type":"Buffer","data":[62,143,238,40,154,175,228,170,36,178,137,196,114,160,225,193,97,223,42,146]},"announce":[],"urlList":[]}}